<mxfile host="app.diagrams.net" modified="2024-04-26T08:20:59.924Z" agent="Mozilla/5.0 (Windows NT 10.0; Win64; x64) AppleWebKit/537.36 (KHTML, like Gecko) Chrome/125.0.0.0 Safari/537.36" etag="-bU6_Oy9YP9AnXFWzosZ" version="24.3.0" type="device">
  <diagram name="Page-1" id="OfEWiOXzpoKFdeSjk2ul">
    <mxGraphModel dx="1750" dy="928" grid="1" gridSize="10" guides="1" tooltips="1" connect="1" arrows="1" fold="1" page="1" pageScale="1" pageWidth="850" pageHeight="1100" math="0" shadow="0">
      <root>
        <mxCell id="0" />
        <mxCell id="1" parent="0" />
        <mxCell id="ggQR8KIwFeHpHJ8cOla5-2" value="" style="rounded=0;whiteSpace=wrap;html=1;" parent="1" vertex="1">
          <mxGeometry x="286" y="170" width="210" height="720" as="geometry" />
        </mxCell>
        <mxCell id="ggQR8KIwFeHpHJ8cOla5-3" value="&lt;font style=&quot;font-size: 10px;&quot;&gt;login&lt;/font&gt;" style="ellipse;whiteSpace=wrap;html=1;" parent="1" vertex="1">
          <mxGeometry x="326" y="240" width="130" height="40" as="geometry" />
        </mxCell>
        <mxCell id="ggQR8KIwFeHpHJ8cOla5-4" value="&lt;font style=&quot;font-size: 10px;&quot;&gt;Manage Contacts&lt;br&gt;(update,remove)&lt;/font&gt;" style="ellipse;whiteSpace=wrap;html=1;" parent="1" vertex="1">
          <mxGeometry x="326" y="340" width="120" height="40" as="geometry" />
        </mxCell>
        <mxCell id="ggQR8KIwFeHpHJ8cOla5-5" value="&lt;font style=&quot;font-size: 10px;&quot;&gt;Rate and Comment&lt;/font&gt;" style="ellipse;whiteSpace=wrap;html=1;" parent="1" vertex="1">
          <mxGeometry x="326" y="385" width="120" height="45" as="geometry" />
        </mxCell>
        <mxCell id="ggQR8KIwFeHpHJ8cOla5-6" value="&lt;span style=&quot;font-size: 10px;&quot;&gt;Apply to Add Contact&lt;/span&gt;" style="ellipse;whiteSpace=wrap;html=1;" parent="1" vertex="1">
          <mxGeometry x="326" y="435" width="120" height="45" as="geometry" />
        </mxCell>
        <mxCell id="ggQR8KIwFeHpHJ8cOla5-7" value="&lt;font style=&quot;font-size: 9px;&quot;&gt;Approve/Decline Contact&lt;/font&gt;" style="ellipse;whiteSpace=wrap;html=1;" parent="1" vertex="1">
          <mxGeometry x="331" y="490" width="120" height="45" as="geometry" />
        </mxCell>
        <mxCell id="ggQR8KIwFeHpHJ8cOla5-10" value="&lt;span style=&quot;font-size: 10px;&quot;&gt;Signup&lt;/span&gt;" style="ellipse;whiteSpace=wrap;html=1;" parent="1" vertex="1">
          <mxGeometry x="326" y="290" width="120" height="40" as="geometry" />
        </mxCell>
        <mxCell id="ggQR8KIwFeHpHJ8cOla5-11" value="&lt;font size=&quot;1&quot;&gt;View Contacts&lt;/font&gt;" style="ellipse;whiteSpace=wrap;html=1;" parent="1" vertex="1">
          <mxGeometry x="331" y="540" width="120" height="45" as="geometry" />
        </mxCell>
        <mxCell id="ggQR8KIwFeHpHJ8cOla5-12" value="&lt;font size=&quot;1&quot;&gt;Search Contacts&lt;/font&gt;" style="ellipse;whiteSpace=wrap;html=1;" parent="1" vertex="1">
          <mxGeometry x="326" y="600" width="120" height="45" as="geometry" />
        </mxCell>
        <mxCell id="ggQR8KIwFeHpHJ8cOla5-13" value="&lt;font size=&quot;1&quot;&gt;Get Notification&lt;/font&gt;" style="ellipse;whiteSpace=wrap;html=1;" parent="1" vertex="1">
          <mxGeometry x="331" y="780" width="120" height="45" as="geometry" />
        </mxCell>
        <mxCell id="ggQR8KIwFeHpHJ8cOla5-14" value="&lt;font size=&quot;1&quot;&gt;Logout&lt;/font&gt;" style="ellipse;whiteSpace=wrap;html=1;" parent="1" vertex="1">
          <mxGeometry x="331" y="830" width="120" height="45" as="geometry" />
        </mxCell>
        <mxCell id="ggQR8KIwFeHpHJ8cOla5-15" value="Admin" style="shape=umlActor;verticalLabelPosition=bottom;verticalAlign=top;html=1;outlineConnect=0;" parent="1" vertex="1">
          <mxGeometry x="126" y="450" width="30" height="60" as="geometry" />
        </mxCell>
        <mxCell id="ggQR8KIwFeHpHJ8cOla5-16" value="User" style="shape=umlActor;verticalLabelPosition=bottom;verticalAlign=top;html=1;outlineConnect=0;" parent="1" vertex="1">
          <mxGeometry x="636" y="400" width="30" height="60" as="geometry" />
        </mxCell>
        <mxCell id="ggQR8KIwFeHpHJ8cOla5-20" value="" style="endArrow=none;html=1;rounded=0;entryX=1;entryY=0.5;entryDx=0;entryDy=0;exitX=0;exitY=0.3333333333333333;exitDx=0;exitDy=0;exitPerimeter=0;" parent="1" source="ggQR8KIwFeHpHJ8cOla5-16" target="ggQR8KIwFeHpHJ8cOla5-3" edge="1">
          <mxGeometry width="50" height="50" relative="1" as="geometry">
            <mxPoint x="476" y="450" as="sourcePoint" />
            <mxPoint x="526" y="400" as="targetPoint" />
          </mxGeometry>
        </mxCell>
        <mxCell id="ggQR8KIwFeHpHJ8cOla5-21" value="" style="endArrow=none;html=1;rounded=0;entryX=1;entryY=0.5;entryDx=0;entryDy=0;exitX=0;exitY=0.3333333333333333;exitDx=0;exitDy=0;exitPerimeter=0;" parent="1" source="ggQR8KIwFeHpHJ8cOla5-16" target="ggQR8KIwFeHpHJ8cOla5-10" edge="1">
          <mxGeometry width="50" height="50" relative="1" as="geometry">
            <mxPoint x="646" y="445" as="sourcePoint" />
            <mxPoint x="456" y="210" as="targetPoint" />
          </mxGeometry>
        </mxCell>
        <mxCell id="ggQR8KIwFeHpHJ8cOla5-22" value="" style="endArrow=none;html=1;rounded=0;entryX=1;entryY=0.5;entryDx=0;entryDy=0;exitX=0;exitY=0.3333333333333333;exitDx=0;exitDy=0;exitPerimeter=0;" parent="1" source="ggQR8KIwFeHpHJ8cOla5-16" target="ggQR8KIwFeHpHJ8cOla5-5" edge="1">
          <mxGeometry width="50" height="50" relative="1" as="geometry">
            <mxPoint x="636" y="430" as="sourcePoint" />
            <mxPoint x="456" y="260" as="targetPoint" />
          </mxGeometry>
        </mxCell>
        <mxCell id="ggQR8KIwFeHpHJ8cOla5-23" value="" style="endArrow=none;html=1;rounded=0;entryX=1;entryY=0.5;entryDx=0;entryDy=0;exitX=0;exitY=0.3333333333333333;exitDx=0;exitDy=0;exitPerimeter=0;" parent="1" source="ggQR8KIwFeHpHJ8cOla5-16" target="ggQR8KIwFeHpHJ8cOla5-6" edge="1">
          <mxGeometry width="50" height="50" relative="1" as="geometry">
            <mxPoint x="636" y="430" as="sourcePoint" />
            <mxPoint x="536" y="390" as="targetPoint" />
          </mxGeometry>
        </mxCell>
        <mxCell id="ggQR8KIwFeHpHJ8cOla5-24" value="" style="endArrow=none;html=1;rounded=0;exitX=1;exitY=0.5;exitDx=0;exitDy=0;entryX=0;entryY=0.3333333333333333;entryDx=0;entryDy=0;entryPerimeter=0;" parent="1" source="ggQR8KIwFeHpHJ8cOla5-11" target="ggQR8KIwFeHpHJ8cOla5-16" edge="1">
          <mxGeometry width="50" height="50" relative="1" as="geometry">
            <mxPoint x="516" y="540" as="sourcePoint" />
            <mxPoint x="636" y="380" as="targetPoint" />
          </mxGeometry>
        </mxCell>
        <mxCell id="ggQR8KIwFeHpHJ8cOla5-25" value="" style="endArrow=none;html=1;rounded=0;exitX=1;exitY=0.5;exitDx=0;exitDy=0;entryX=0;entryY=0.3333333333333333;entryDx=0;entryDy=0;entryPerimeter=0;" parent="1" source="ggQR8KIwFeHpHJ8cOla5-12" target="ggQR8KIwFeHpHJ8cOla5-16" edge="1">
          <mxGeometry width="50" height="50" relative="1" as="geometry">
            <mxPoint x="636" y="470" as="sourcePoint" />
            <mxPoint x="636" y="380" as="targetPoint" />
          </mxGeometry>
        </mxCell>
        <mxCell id="ggQR8KIwFeHpHJ8cOla5-26" value="" style="endArrow=none;html=1;rounded=0;exitX=1;exitY=0.5;exitDx=0;exitDy=0;entryX=0;entryY=0.3333333333333333;entryDx=0;entryDy=0;entryPerimeter=0;" parent="1" source="ggQR8KIwFeHpHJ8cOla5-13" target="ggQR8KIwFeHpHJ8cOla5-16" edge="1">
          <mxGeometry width="50" height="50" relative="1" as="geometry">
            <mxPoint x="636" y="470" as="sourcePoint" />
            <mxPoint x="636" y="380" as="targetPoint" />
          </mxGeometry>
        </mxCell>
        <mxCell id="ggQR8KIwFeHpHJ8cOla5-27" value="" style="endArrow=none;html=1;rounded=0;exitX=1;exitY=0.5;exitDx=0;exitDy=0;entryX=0;entryY=0.3333333333333333;entryDx=0;entryDy=0;entryPerimeter=0;" parent="1" source="ggQR8KIwFeHpHJ8cOla5-14" target="ggQR8KIwFeHpHJ8cOla5-16" edge="1">
          <mxGeometry width="50" height="50" relative="1" as="geometry">
            <mxPoint x="636" y="470" as="sourcePoint" />
            <mxPoint x="636" y="380" as="targetPoint" />
          </mxGeometry>
        </mxCell>
        <mxCell id="ggQR8KIwFeHpHJ8cOla5-29" value="" style="endArrow=none;html=1;rounded=0;entryX=0;entryY=0.5;entryDx=0;entryDy=0;exitX=1;exitY=0.3333333333333333;exitDx=0;exitDy=0;exitPerimeter=0;" parent="1" source="ggQR8KIwFeHpHJ8cOla5-15" target="ggQR8KIwFeHpHJ8cOla5-3" edge="1">
          <mxGeometry width="50" height="50" relative="1" as="geometry">
            <mxPoint x="376" y="470" as="sourcePoint" />
            <mxPoint x="426" y="420" as="targetPoint" />
          </mxGeometry>
        </mxCell>
        <mxCell id="ggQR8KIwFeHpHJ8cOla5-30" value="" style="endArrow=none;html=1;rounded=0;entryX=0;entryY=0.5;entryDx=0;entryDy=0;exitX=1;exitY=0.3333333333333333;exitDx=0;exitDy=0;exitPerimeter=0;" parent="1" source="ggQR8KIwFeHpHJ8cOla5-15" target="ggQR8KIwFeHpHJ8cOla5-4" edge="1">
          <mxGeometry width="50" height="50" relative="1" as="geometry">
            <mxPoint x="176" y="405" as="sourcePoint" />
            <mxPoint x="336" y="210" as="targetPoint" />
          </mxGeometry>
        </mxCell>
        <mxCell id="ggQR8KIwFeHpHJ8cOla5-32" value="" style="endArrow=none;html=1;rounded=0;entryX=0;entryY=0.5;entryDx=0;entryDy=0;exitX=1;exitY=0.3333333333333333;exitDx=0;exitDy=0;exitPerimeter=0;" parent="1" source="ggQR8KIwFeHpHJ8cOla5-15" target="ggQR8KIwFeHpHJ8cOla5-7" edge="1">
          <mxGeometry width="50" height="50" relative="1" as="geometry">
            <mxPoint x="236" y="450" as="sourcePoint" />
            <mxPoint x="286" y="400" as="targetPoint" />
          </mxGeometry>
        </mxCell>
        <mxCell id="ggQR8KIwFeHpHJ8cOla5-33" value="" style="endArrow=none;html=1;rounded=0;entryX=0.006;entryY=0.605;entryDx=0;entryDy=0;entryPerimeter=0;exitX=1;exitY=0.3333333333333333;exitDx=0;exitDy=0;exitPerimeter=0;" parent="1" source="ggQR8KIwFeHpHJ8cOla5-15" target="ggQR8KIwFeHpHJ8cOla5-11" edge="1">
          <mxGeometry width="50" height="50" relative="1" as="geometry">
            <mxPoint x="236" y="520" as="sourcePoint" />
            <mxPoint x="286" y="470" as="targetPoint" />
          </mxGeometry>
        </mxCell>
        <mxCell id="ggQR8KIwFeHpHJ8cOla5-34" value="" style="endArrow=none;html=1;rounded=0;entryX=0;entryY=0.5;entryDx=0;entryDy=0;exitX=1;exitY=0.3333333333333333;exitDx=0;exitDy=0;exitPerimeter=0;" parent="1" source="ggQR8KIwFeHpHJ8cOla5-15" target="ggQR8KIwFeHpHJ8cOla5-12" edge="1">
          <mxGeometry width="50" height="50" relative="1" as="geometry">
            <mxPoint x="236" y="520" as="sourcePoint" />
            <mxPoint x="286" y="470" as="targetPoint" />
          </mxGeometry>
        </mxCell>
        <mxCell id="ggQR8KIwFeHpHJ8cOla5-36" value="" style="endArrow=none;html=1;rounded=0;entryX=0;entryY=0.5;entryDx=0;entryDy=0;exitX=1;exitY=0.3333333333333333;exitDx=0;exitDy=0;exitPerimeter=0;" parent="1" source="ggQR8KIwFeHpHJ8cOla5-15" target="ggQR8KIwFeHpHJ8cOla5-14" edge="1">
          <mxGeometry width="50" height="50" relative="1" as="geometry">
            <mxPoint x="236" y="520" as="sourcePoint" />
            <mxPoint x="286" y="470" as="targetPoint" />
          </mxGeometry>
        </mxCell>
        <mxCell id="ggQR8KIwFeHpHJ8cOla5-39" value="&lt;b&gt;Use Case Diagram of Thaekedar: Constuction Contact Management System&amp;nbsp;&lt;/b&gt;" style="text;html=1;strokeColor=none;fillColor=none;align=center;verticalAlign=middle;whiteSpace=wrap;rounded=0;" parent="1" vertex="1">
          <mxGeometry x="301" y="180" width="180" height="30" as="geometry" />
        </mxCell>
        <mxCell id="IldelJamWwY4lkFR033a-2" value="&lt;font size=&quot;1&quot;&gt;&amp;nbsp;Send Work Request&amp;nbsp;&lt;/font&gt;" style="ellipse;whiteSpace=wrap;html=1;" vertex="1" parent="1">
          <mxGeometry x="326" y="660" width="120" height="45" as="geometry" />
        </mxCell>
        <mxCell id="IldelJamWwY4lkFR033a-3" value="&lt;span style=&quot;font-size: x-small;&quot;&gt;Approve/Decline&lt;br&gt;&amp;nbsp;Work Request&lt;/span&gt;" style="ellipse;whiteSpace=wrap;html=1;" vertex="1" parent="1">
          <mxGeometry x="331" y="720" width="120" height="45" as="geometry" />
        </mxCell>
        <mxCell id="IldelJamWwY4lkFR033a-4" value="" style="endArrow=none;html=1;rounded=0;exitX=1;exitY=0.5;exitDx=0;exitDy=0;" edge="1" parent="1" source="IldelJamWwY4lkFR033a-3">
          <mxGeometry width="50" height="50" relative="1" as="geometry">
            <mxPoint x="461" y="793" as="sourcePoint" />
            <mxPoint x="636" y="420" as="targetPoint" />
          </mxGeometry>
        </mxCell>
        <mxCell id="IldelJamWwY4lkFR033a-5" value="" style="endArrow=none;html=1;rounded=0;exitX=1;exitY=0.5;exitDx=0;exitDy=0;" edge="1" parent="1" source="IldelJamWwY4lkFR033a-2">
          <mxGeometry width="50" height="50" relative="1" as="geometry">
            <mxPoint x="471" y="803" as="sourcePoint" />
            <mxPoint x="636" y="420" as="targetPoint" />
          </mxGeometry>
        </mxCell>
      </root>
    </mxGraphModel>
  </diagram>
</mxfile>
